<mxfile host="app.diagrams.net" modified="2022-05-03T20:55:49.131Z" agent="5.0 (Windows NT 10.0; Win64; x64) AppleWebKit/537.36 (KHTML, like Gecko) Chrome/100.0.4896.75 Safari/537.36" etag="1lxNodpfGzJcIDbStbiE" version="17.4.6" type="github">
  <diagram id="R2lEEEUBdFMjLlhIrx00" name="Page-1">
    <mxGraphModel dx="2272" dy="706" grid="1" gridSize="10" guides="1" tooltips="1" connect="1" arrows="1" fold="1" page="1" pageScale="1" pageWidth="850" pageHeight="1100" math="0" shadow="0" extFonts="Permanent Marker^https://fonts.googleapis.com/css?family=Permanent+Marker">
      <root>
        <mxCell id="0" />
        <mxCell id="1" parent="0" />
        <mxCell id="-a6M1MTCdx8tIAR50Wc5-17" style="rounded=0;orthogonalLoop=1;jettySize=auto;html=1;entryX=1;entryY=0.5;entryDx=0;entryDy=0;endArrow=none;endFill=0;" edge="1" parent="1" source="-a6M1MTCdx8tIAR50Wc5-1" target="-a6M1MTCdx8tIAR50Wc5-5">
          <mxGeometry relative="1" as="geometry" />
        </mxCell>
        <mxCell id="-a6M1MTCdx8tIAR50Wc5-18" style="rounded=0;orthogonalLoop=1;jettySize=auto;html=1;entryX=1;entryY=1;entryDx=0;entryDy=0;endArrow=none;endFill=0;" edge="1" parent="1" source="-a6M1MTCdx8tIAR50Wc5-1" target="-a6M1MTCdx8tIAR50Wc5-6">
          <mxGeometry relative="1" as="geometry" />
        </mxCell>
        <mxCell id="-a6M1MTCdx8tIAR50Wc5-19" style="edgeStyle=none;rounded=0;orthogonalLoop=1;jettySize=auto;html=1;endArrow=none;endFill=0;" edge="1" parent="1" source="-a6M1MTCdx8tIAR50Wc5-1" target="-a6M1MTCdx8tIAR50Wc5-7">
          <mxGeometry relative="1" as="geometry" />
        </mxCell>
        <mxCell id="-a6M1MTCdx8tIAR50Wc5-20" style="edgeStyle=none;rounded=0;orthogonalLoop=1;jettySize=auto;html=1;endArrow=none;endFill=0;" edge="1" parent="1" source="-a6M1MTCdx8tIAR50Wc5-1" target="-a6M1MTCdx8tIAR50Wc5-8">
          <mxGeometry relative="1" as="geometry" />
        </mxCell>
        <mxCell id="-a6M1MTCdx8tIAR50Wc5-21" style="edgeStyle=none;rounded=0;orthogonalLoop=1;jettySize=auto;html=1;entryX=0.02;entryY=0.7;entryDx=0;entryDy=0;entryPerimeter=0;endArrow=none;endFill=0;" edge="1" parent="1" source="-a6M1MTCdx8tIAR50Wc5-1" target="-a6M1MTCdx8tIAR50Wc5-10">
          <mxGeometry relative="1" as="geometry" />
        </mxCell>
        <mxCell id="-a6M1MTCdx8tIAR50Wc5-22" style="edgeStyle=none;rounded=0;orthogonalLoop=1;jettySize=auto;html=1;endArrow=none;endFill=0;" edge="1" parent="1" source="-a6M1MTCdx8tIAR50Wc5-1" target="-a6M1MTCdx8tIAR50Wc5-11">
          <mxGeometry relative="1" as="geometry" />
        </mxCell>
        <mxCell id="-a6M1MTCdx8tIAR50Wc5-23" style="edgeStyle=none;rounded=0;orthogonalLoop=1;jettySize=auto;html=1;endArrow=none;endFill=0;" edge="1" parent="1" source="-a6M1MTCdx8tIAR50Wc5-1" target="-a6M1MTCdx8tIAR50Wc5-12">
          <mxGeometry relative="1" as="geometry" />
        </mxCell>
        <mxCell id="-a6M1MTCdx8tIAR50Wc5-24" style="edgeStyle=none;rounded=0;orthogonalLoop=1;jettySize=auto;html=1;endArrow=none;endFill=0;" edge="1" parent="1" source="-a6M1MTCdx8tIAR50Wc5-1" target="-a6M1MTCdx8tIAR50Wc5-13">
          <mxGeometry relative="1" as="geometry" />
        </mxCell>
        <mxCell id="-a6M1MTCdx8tIAR50Wc5-25" style="edgeStyle=none;rounded=0;orthogonalLoop=1;jettySize=auto;html=1;endArrow=none;endFill=0;" edge="1" parent="1" source="-a6M1MTCdx8tIAR50Wc5-1" target="-a6M1MTCdx8tIAR50Wc5-14">
          <mxGeometry relative="1" as="geometry" />
        </mxCell>
        <mxCell id="-a6M1MTCdx8tIAR50Wc5-26" style="edgeStyle=none;rounded=0;orthogonalLoop=1;jettySize=auto;html=1;endArrow=none;endFill=0;" edge="1" parent="1" source="-a6M1MTCdx8tIAR50Wc5-1" target="-a6M1MTCdx8tIAR50Wc5-15">
          <mxGeometry relative="1" as="geometry" />
        </mxCell>
        <mxCell id="-a6M1MTCdx8tIAR50Wc5-1" value="学生" style="whiteSpace=wrap;html=1;align=center;" vertex="1" parent="1">
          <mxGeometry x="220" y="260" width="100" height="40" as="geometry" />
        </mxCell>
        <mxCell id="-a6M1MTCdx8tIAR50Wc5-2" value="课程" style="whiteSpace=wrap;html=1;align=center;" vertex="1" parent="1">
          <mxGeometry x="220" y="490" width="100" height="40" as="geometry" />
        </mxCell>
        <mxCell id="-a6M1MTCdx8tIAR50Wc5-3" value="教师" style="whiteSpace=wrap;html=1;align=center;" vertex="1" parent="1">
          <mxGeometry x="630" y="490" width="100" height="40" as="geometry" />
        </mxCell>
        <mxCell id="-a6M1MTCdx8tIAR50Wc5-4" value="作业" style="whiteSpace=wrap;html=1;align=center;" vertex="1" parent="1">
          <mxGeometry x="630" y="260" width="100" height="40" as="geometry" />
        </mxCell>
        <mxCell id="-a6M1MTCdx8tIAR50Wc5-5" value="id" style="ellipse;whiteSpace=wrap;html=1;align=center;" vertex="1" parent="1">
          <mxGeometry x="30" y="220" width="100" height="40" as="geometry" />
        </mxCell>
        <mxCell id="-a6M1MTCdx8tIAR50Wc5-6" value="用户名" style="ellipse;whiteSpace=wrap;html=1;align=center;" vertex="1" parent="1">
          <mxGeometry x="60" y="150" width="100" height="40" as="geometry" />
        </mxCell>
        <mxCell id="-a6M1MTCdx8tIAR50Wc5-7" value="密码" style="ellipse;whiteSpace=wrap;html=1;align=center;" vertex="1" parent="1">
          <mxGeometry x="170" y="130" width="100" height="40" as="geometry" />
        </mxCell>
        <mxCell id="-a6M1MTCdx8tIAR50Wc5-8" value="学生姓名" style="ellipse;whiteSpace=wrap;html=1;align=center;" vertex="1" parent="1">
          <mxGeometry x="290" y="130" width="100" height="40" as="geometry" />
        </mxCell>
        <mxCell id="-a6M1MTCdx8tIAR50Wc5-10" value="身份证号码" style="ellipse;whiteSpace=wrap;html=1;align=center;" vertex="1" parent="1">
          <mxGeometry x="400" y="150" width="100" height="40" as="geometry" />
        </mxCell>
        <mxCell id="-a6M1MTCdx8tIAR50Wc5-11" value="头像" style="ellipse;whiteSpace=wrap;html=1;align=center;" vertex="1" parent="1">
          <mxGeometry x="440" y="200" width="100" height="40" as="geometry" />
        </mxCell>
        <mxCell id="-a6M1MTCdx8tIAR50Wc5-12" value="班级号" style="ellipse;whiteSpace=wrap;html=1;align=center;" vertex="1" parent="1">
          <mxGeometry x="40" y="350" width="100" height="40" as="geometry" />
        </mxCell>
        <mxCell id="-a6M1MTCdx8tIAR50Wc5-13" value="性别" style="ellipse;whiteSpace=wrap;html=1;align=center;" vertex="1" parent="1">
          <mxGeometry x="410" y="350" width="100" height="40" as="geometry" />
        </mxCell>
        <mxCell id="-a6M1MTCdx8tIAR50Wc5-14" value="邮箱" style="ellipse;whiteSpace=wrap;html=1;align=center;" vertex="1" parent="1">
          <mxGeometry x="440" y="290" width="100" height="40" as="geometry" />
        </mxCell>
        <mxCell id="-a6M1MTCdx8tIAR50Wc5-15" value="注册时间" style="ellipse;whiteSpace=wrap;html=1;align=center;" vertex="1" parent="1">
          <mxGeometry x="280" y="360" width="100" height="40" as="geometry" />
        </mxCell>
        <mxCell id="-a6M1MTCdx8tIAR50Wc5-27" style="edgeStyle=none;rounded=0;orthogonalLoop=1;jettySize=auto;html=1;entryX=0;entryY=1;entryDx=0;entryDy=0;endArrow=none;endFill=0;" edge="1" parent="1" source="-a6M1MTCdx8tIAR50Wc5-16" target="-a6M1MTCdx8tIAR50Wc5-12">
          <mxGeometry relative="1" as="geometry" />
        </mxCell>
        <mxCell id="-a6M1MTCdx8tIAR50Wc5-16" value="班级" style="whiteSpace=wrap;html=1;align=center;" vertex="1" parent="1">
          <mxGeometry x="-130" y="490" width="100" height="40" as="geometry" />
        </mxCell>
      </root>
    </mxGraphModel>
  </diagram>
</mxfile>
